<svg width="512" height="480" xmlns="http://www.w3.org/2000/svg" xmlns:xlink="http://www.w3.org/1999/xlink" xml:space="preserve" overflow="hidden"><defs><clipPath id="clip0"><rect x="0" y="0" width="512" height="480"/></clipPath></defs><g clip-path="url(#clip0)"><path d="M255.464 89.8987C280.289 89.8987 300.413 69.7742 300.413 44.9494 300.413 20.1245 280.289 0 255.464 0 230.639 0 210.514 20.1245 210.514 44.9494 210.514 69.7742 230.639 89.8987 255.464 89.8987Z" fill="#9FEF00" fill-rule="nonzero" fill-opacity="1" transform="scale(1.00208 1)"/><path d="M328.417 61.4489C320.862 94.8194 291.091 119.865 255.469 119.865 219.847 119.865 190.076 94.8194 182.521 61.4489 155.726 67.4194 135.604 91.2927 135.604 119.865L135.604 179.798C135.604 196.318 149.05 209.765 165.57 209.765 182.09 209.765 195.537 196.318 195.537 179.798L195.537 149.832 315.402 149.832 315.402 179.798C315.402 196.318 328.849 209.765 345.368 209.765 361.888 209.765 375.335 196.318 375.335 179.798L375.335 119.865C375.334 91.2927 355.211 67.4194 328.417 61.4489Z" fill="#9FEF00" fill-rule="nonzero" fill-opacity="1" transform="scale(1.00208 1)"/><path d="M487.701 366.19C466.201 353.777 438.711 361.142 426.298 382.642 413.886 404.14 421.251 431.632 442.752 444.043 464.25 456.456 492.74 449.089 505.152 427.591 517.565 406.092 509.199 378.602 487.701 366.19Z" fill="#9FEF00" fill-rule="nonzero" fill-opacity="1" transform="scale(1.00208 1)"/><path d="M460.278 263.852 408.376 233.886C394.069 225.626 375.701 230.548 367.441 244.855 359.182 259.162 364.103 277.53 378.411 285.79L404.363 300.772 344.429 404.579 318.478 389.596C304.17 381.337 285.803 386.258 277.543 400.565 269.283 414.873 274.205 433.24 288.512 441.5L340.414 471.467C365.16 485.753 395.896 480.262 414.463 460.043 389.341 436.815 382.535 398.51 400.346 367.659 418.157 336.808 454.733 323.551 487.411 333.692 495.638 307.503 485.025 278.139 460.278 263.852Z" fill="#9FEF00" fill-rule="nonzero" fill-opacity="1" transform="scale(1.00208 1)"/><path d="M84.6386 382.643C72.2254 361.143 44.7357 353.777 23.2355 366.191 1.73724 378.603-6.62933 406.093 5.78481 427.593 18.196 449.091 46.6866 456.458 68.1848 444.045 89.6851 431.632 97.0507 404.141 84.6386 382.643Z" fill="#9FEF00" fill-rule="nonzero" fill-opacity="1" transform="scale(1.00208 1)"/><path d="M233.394 400.565C225.134 386.258 206.765 381.338 192.459 389.596L166.507 404.579 106.574 300.772 132.526 285.79C146.833 277.53 151.754 259.161 143.495 244.855 135.235 230.548 116.867 225.627 102.56 233.886L50.6583 263.852C25.9118 278.139 15.2979 307.503 23.5268 333.693 56.2037 323.551 92.7805 336.809 110.592 367.66 128.402 398.511 121.597 436.815 96.4748 460.044 115.041 480.262 145.777 485.754 170.524 471.468L222.426 441.5C236.732 433.24 241.654 414.872 233.394 400.565Z" fill="#9FEF00" fill-rule="nonzero" fill-opacity="1" transform="scale(1.00208 1)"/><path d="M304.651 325.962 304.651 240.444 301.388 240.717C288.301 241.799 275.466 244.928 263.349 249.99L257.606 252.374 257.606 337.554 261.789 335.815C274.327 330.598 287.602 327.371 301.136 326.247L304.651 325.962Z" fill="#9FEF00" fill-rule="nonzero" fill-opacity="1" transform="scale(1.00208 1)"/><path d="M315.343 253.087 308.927 253.087 308.927 327.931C308.932 329.045 308.077 329.978 306.964 330.069L301.488 330.518C299.907 330.649 298.33 330.811 296.761 331.003 296.251 331.065 295.745 331.147 295.238 331.218 294.179 331.359 293.122 331.501 292.07 331.669 291.455 331.767 290.845 331.882 290.233 331.989 289.29 332.154 288.345 332.319 287.405 332.504 286.763 332.633 286.122 332.777 285.467 332.915 284.571 333.106 283.675 333.3 282.786 333.512 282.118 333.671 281.454 333.839 280.79 334.008 279.925 334.222 279.064 334.452 278.202 334.693 277.534 334.876 276.864 335.071 276.198 335.267 275.342 335.52 274.499 335.776 273.655 336.046 272.993 336.259 272.332 336.474 271.673 336.687 270.827 336.972 269.986 337.266 269.147 337.571 268.506 337.803 267.864 338.037 267.208 338.282 266.915 338.394 266.624 338.513 266.331 338.627L315.343 338.627 315.343 253.087Z" fill="#9FEF00" fill-rule="nonzero" fill-opacity="1" transform="scale(1.00208 1)"/><path d="M209.547 240.717 206.284 240.444 206.284 325.968 210.079 326.29C223.604 327.421 236.869 330.668 249.385 335.913L253.329 337.554 253.329 252.374 247.591 249.992C235.474 244.929 222.636 241.799 209.547 240.717Z" fill="#9FEF00" fill-rule="nonzero" fill-opacity="1" transform="scale(1.00208 1)"/><path d="M195.593 253.087 195.593 338.623 244.639 338.623C244.376 338.52 244.112 338.409 243.847 338.31 243.235 338.078 242.619 337.855 242.003 337.631 241.134 337.315 240.266 337.009 239.391 336.715 238.759 336.501 238.124 336.293 237.487 336.091 236.62 335.805 235.749 335.537 234.878 335.286 234.235 335.099 233.594 334.91 232.953 334.731 232.074 334.487 231.192 334.257 230.309 334.03 229.668 333.864 229.026 333.7 228.37 333.546 227.474 333.333 226.573 333.136 225.673 332.942 225.032 332.804 224.39 332.663 223.749 332.534 222.816 332.351 221.88 332.186 220.943 332.021 220.329 331.914 219.715 331.808 219.101 331.698 218.067 331.534 217.03 331.396 215.993 331.255 215.469 331.185 214.949 331.102 214.425 331.042 212.858 330.853 211.289 330.69 209.721 330.557L203.964 330.069C202.854 329.975 202.003 329.043 202.007 327.931L202.007 253.087 195.593 253.087Z" fill="#9FEF00" fill-rule="nonzero" fill-opacity="1" transform="scale(1.00208 1)"/></g></svg>